<?xml version="1.0" encoding="UTF-8"?>
<svg id="Layer_2" data-name="Layer 2" xmlns="http://www.w3.org/2000/svg" viewBox="0 0 506.85 477.03">
  <defs>
    <style>
      .cls-1 {
        fill: #fff;
      }
    </style>
  </defs>
  <g id="Layer_1-2" data-name="Layer 1">
    <g>
      <rect width="506.85" height="477.03"/>
      <g>
        <path class="cls-1" d="M359.36,265.51c-9.11,28.9-23.13,46.63-37.49,47.42-.93,.04-1.81,.07-2.64,.07s-1.62-.03-2.38-.07h-.02c-.74-.07-1.47-.12-2.2-.19l-.22-.03c-58.83-5.98-79.42-75.53-86.39-132.82-3.32-27.45-10.76-40.28-16.52-46.23h-.02c-4.77-1.63-9.68-2.45-14.71-2.45h-9.31v181.72h-38.9V128.48h48.21c5.74,0,11.38,.96,16.78,2.87,16.28,5.73,28.36,19.21,32.33,36.06,2.76,11.75,5.36,19.95,10.11,34.84,1.36,4.29,2.9,9.11,4.66,14.72,1.66,5.26,3.24,10.44,4.79,15.49,12.68,41.51,22.68,74.31,49.35,77.53l.39,.04c.07,.01,.15,.01,.22,.03,.24,.03,.5,.04,.77,.07,.17,.01,.33,.03,.52,.04,.15,.01,.3,.01,.45,.03,1.36,.1,2.81,.1,4.49,0,7.43-.4,15.28-7.09,22.19-18.28,8.92-14.42,12.5-30.32,11.12-46.12-7.11-81.8-61.22-114.56-61.8-114.9l-4.12-2.42h56.64l.56,.42c37.41,28.87,27.57,91.05,13.15,136.6Z"/>
        <path class="cls-1" d="M167.09,371.99c0-13.11,14.54-23.74,32.47-23.74-17.94,0-32.47-10.63-32.47-23.74,0,13.11-14.54,23.74-32.47,23.74,17.94,0,32.47,10.63,32.47,23.74Z"/>
      </g>
    </g>
  </g>
</svg>