<?xml version="1.0" encoding="UTF-8"?>
<svg id="Layer_2" data-name="Layer 2" xmlns="http://www.w3.org/2000/svg" viewBox="0 0 48.37 49.57">
  <g id="Layer_1-2" data-name="Layer 1">
    <g>
      <path d="M45.75,27.89c-1.85,5.88-4.71,9.49-7.63,9.65-.19,0-.37,.01-.54,.01s-.33,0-.49-.01h0c-.15-.01-.3-.02-.45-.04h-.05c-11.97-1.22-16.17-15.38-17.58-27.04-.67-5.59-2.19-8.2-3.36-9.41h0c-.97-.33-1.97-.5-2.99-.5h-1.9V37.54H2.84V0H12.65c1.17,0,2.32,.2,3.42,.58,3.31,1.17,5.77,3.91,6.58,7.34,.56,2.39,1.09,4.06,2.06,7.09,.28,.87,.59,1.85,.95,3,.34,1.07,.66,2.13,.97,3.15,2.58,8.45,4.62,15.13,10.04,15.78h.08s.03,.01,.05,.01c.05,0,.1,0,.16,.01,.03,0,.07,0,.11,0,.03,0,.06,0,.09,0,.28,.02,.57,.02,.91,0,1.51-.08,3.11-1.44,4.52-3.72,1.81-2.94,2.54-6.17,2.26-9.39C43.4,7.23,32.39,.56,32.27,.49l-.84-.49h11.53l.11,.09c7.61,5.88,5.61,18.53,2.68,27.81Z"/>
      <path d="M6.61,49.57c0-2.67,2.96-4.83,6.61-4.83-3.65,0-6.61-2.16-6.61-4.83,0,2.67-2.96,4.83-6.61,4.83,3.65,0,6.61,2.16,6.61,4.83Z"/>
    </g>
  </g>
</svg>